<?xml version="1.0" standalone="no"?>
<!DOCTYPE svg PUBLIC "-//W3C//DTD SVG 20010904//EN"
 "http://www.w3.org/TR/2001/REC-SVG-20010904/DTD/svg10.dtd">
<svg version="1.0" xmlns="http://www.w3.org/2000/svg"
 width="260.000000pt" height="260.000000pt" viewBox="0 0 260.000000 260.000000"
 preserveAspectRatio="xMidYMid meet">
<metadata>
Created by potrace 1.11, written by Peter Selinger 2001-2013
</metadata>
<g transform="translate(0.000000,260.000000) scale(0.100000,-0.100000)"
fill="#000000" stroke="none">
<path d="M1849 2547 c-86 -67 -116 -87 -165 -112 -45 -23 -57 -25 -90 -16 -22
6 -68 13 -104 15 -36 3 -90 9 -120 14 -30 4 -100 7 -155 5 -55 -1 -123 -2
-152 -2 -28 0 -54 -5 -58 -11 -3 -6 -10 -8 -13 -6 -15 9 -105 -15 -135 -36
-18 -13 -68 -37 -112 -53 -55 -21 -116 -56 -190 -110 -128 -93 -135 -99 -135
-118 0 -9 -20 -34 -45 -58 -25 -24 -45 -50 -45 -60 0 -15 -44 -88 -60 -99 -15
-10 -50 -76 -50 -95 0 -11 -14 -44 -30 -74 -17 -30 -30 -69 -30 -86 0 -18 -7
-52 -16 -76 -8 -24 -17 -78 -19 -119 -2 -41 -8 -93 -13 -115 -5 -25 -5 -50 0
-65 10 -25 12 -77 4 -115 -2 -11 5 -42 15 -70 11 -27 19 -59 19 -70 0 -26 22
-89 37 -107 7 -7 23 -48 36 -90 21 -65 32 -84 81 -132 31 -30 63 -71 72 -91 8
-20 36 -56 62 -81 56 -54 177 -146 211 -160 28 -12 30 -31 32 -214 1 -52 6
-100 11 -107 5 -6 22 -15 38 -18 36 -8 78 13 139 69 90 83 142 106 178 81 11
-8 29 -13 39 -13 10 1 46 -5 79 -12 67 -15 229 -15 290 -1 22 6 77 12 122 14
65 3 94 9 145 34 35 16 83 38 108 47 96 35 311 190 359 259 16 23 48 60 70 81
23 21 44 51 47 65 2 14 12 40 21 56 9 17 33 63 55 104 21 41 42 79 47 85 10
13 57 208 68 286 9 55 8 77 -2 225 -5 76 -12 101 -87 305 -12 30 -34 76 -49
101 -16 25 -29 54 -29 65 0 10 -9 27 -20 39 -36 37 -84 97 -121 149 -31 45
-71 80 -185 162 -28 20 -29 24 -30 106 0 46 -4 90 -8 97 -5 7 -8 32 -7 54 0
41 -15 96 -28 98 -3 0 -14 2 -23 4 -10 2 -36 -11 -59 -28z m-289 -187 c0 -5
-5 -10 -11 -10 -5 0 -7 5 -4 10 3 6 8 10 11 10 2 0 4 -4 4 -10z m-323 -277 c8
-20 -15 -42 -37 -36 -19 5 -28 42 -14 55 9 10 45 -4 51 -19z m553 -133 c15 -8
25 -7 43 5 26 17 37 12 37 -17 0 -13 -8 -18 -27 -19 -16 -1 -32 0 -38 2 -5 2
-30 4 -55 5 -25 2 -51 3 -57 3 -7 1 -13 7 -13 15 0 8 6 16 13 19 19 6 74 -1
97 -13z m205 -79 c-17 -17 -47 -7 -39 13 7 18 36 26 46 11 4 -5 1 -16 -7 -24z
m-525 -15 c114 -31 184 -80 277 -193 79 -98 136 -234 137 -333 1 -87 -12 -189
-29 -220 -8 -14 -26 -50 -40 -80 -17 -34 -45 -71 -74 -95 -27 -22 -59 -55 -71
-73 -23 -32 -52 -51 -94 -59 -11 -2 -24 -8 -31 -13 -31 -26 -156 -60 -235 -63
-76 -4 -95 0 -184 30 -128 44 -139 52 -251 160 -46 45 -104 148 -106 189 -1
16 -11 55 -22 87 -17 50 -19 73 -14 169 6 96 10 116 32 149 14 21 25 47 25 56
0 29 35 77 89 123 28 23 53 51 56 60 4 12 50 36 133 68 70 28 136 52 147 54
52 9 196 0 255 -16z m488 -98 c2 -10 -7 -17 -25 -21 -38 -7 -50 7 -22 27 27
18 43 16 47 -6z m-1548 -173 c0 -15 -62 -31 -79 -21 -6 4 -8 13 -5 20 7 19 84
20 84 1z m155 -55 c-6 -9 -37 -6 -55 5 -16 10 -11 33 8 38 18 4 55 -30 47 -43z
m-164 -326 c14 -18 3 -34 -25 -34 -31 0 -47 19 -36 41 11 19 42 16 61 -7z
m1732 -20 c-8 -20 -33 -17 -33 4 0 10 3 22 7 25 10 11 32 -13 26 -29z m-1763
-174 c0 -17 -49 -35 -61 -23 -6 6 -8 16 -5 22 9 14 66 14 66 1z m1615 -150 c4
-6 1 -18 -6 -26 -12 -14 -14 -14 -26 2 -7 10 -13 21 -13 26 0 12 38 10 45 -2z
m-51 -211 c-9 -15 -31 -10 -38 7 -10 26 4 37 25 18 10 -9 16 -21 13 -25z
m-1204 15 c0 -15 -35 -28 -51 -18 -9 5 -7 10 4 19 21 15 47 15 47 -1z m133
-44 c12 -11 -3 -40 -22 -40 -22 0 -41 19 -41 42 0 15 5 17 28 12 15 -4 31 -10
35 -14z m1030 6 c5 -14 -10 -36 -25 -36 -4 0 -8 8 -8 18 0 31 23 44 33 18z
m-1057 -147 c3 -6 0 -15 -7 -20 -22 -14 -29 -11 -29 11 0 21 24 27 36 9z m814
-54 c0 -17 -16 -22 -52 -17 -36 5 -31 25 8 33 34 6 44 3 44 -16z m-610 -153
c0 -21 -23 -30 -46 -20 -28 13 -30 24 -7 37 18 9 53 -2 53 -17z"/>
<path d="M1262 1471 c-72 -25 -94 -42 -124 -100 -26 -51 -26 -53 -12 -104 28
-96 72 -136 161 -146 52 -6 63 -4 102 21 97 60 123 157 67 248 -17 28 -36 50
-42 50 -6 0 -22 8 -35 18 -36 28 -62 31 -117 13z"/>
</g>
</svg>
